<?xml version="1.0" standalone="no"?>
<!DOCTYPE svg PUBLIC "-//W3C//DTD SVG 20010904//EN"
 "http://www.w3.org/TR/2001/REC-SVG-20010904/DTD/svg10.dtd">
<svg version="1.0" xmlns="http://www.w3.org/2000/svg"
 width="180.000000pt" height="180.000000pt" viewBox="0 0 180.000000 180.000000"
 preserveAspectRatio="xMidYMid meet">
<metadata>
Created by potrace 1.14, written by Peter Selinger 2001-2017
</metadata>
<g transform="translate(0.000000,180.000000) scale(0.100000,-0.100000)"
fill="#000000" stroke="none">
<path d="M0 900 l0 -820 900 0 900 0 0 820 0 820 -900 0 -900 0 0 -820z m719
194 c20 -25 21 -40 21 -216 0 -254 15 -238 -230 -238 l-180 0 0 173 0 173 31
30 30 29 -28 5 c-23 4 -29 11 -31 38 l-3 32 185 0 185 0 20 -26z m377 -84 c55
-127 45 -129 110 23 l38 87 68 0 68 0 0 -241 0 -240 -37 3 -38 3 -3 178 c-2
115 1 185 9 198 13 24 4 38 -13 21 -7 -7 -37 -67 -68 -135 -52 -114 -58 -122
-86 -125 -30 -3 -32 -1 -90 129 -33 73 -66 135 -73 137 -11 4 -12 0 -5 -14 5
-11 9 -102 9 -204 l0 -185 -36 -3 c-35 -3 -36 -2 -42 35 -9 49 -9 406 -1 427
5 12 21 16 74 16 l67 0 49 -110z"/>
<path d="M410 853 l0 -197 28 27 c27 26 33 27 125 27 l97 0 0 170 0 170 -125
0 -125 0 0 -197z"/>
</g>
</svg>
